<svg viewBox="0 0 900 560" xmlns="http://www.w3.org/2000/svg" font-family="system-ui,sans-serif">
  <rect width="900" height="560" fill="#15130f"/>
  <rect width="900" height="56" fill="#1c1914"/>
  <rect width="900" height="1" y="56" fill="#352e23"/>
  <circle cx="22" cy="28" r="7" fill="#f3b34c"/>
  <text x="38" y="34" font-size="22" font-weight="700" fill="#ece4d3" letter-spacing="2" font-family="Georgia,serif">STAGE SHEETS</text>
  <text x="38" y="48" font-size="10" fill="#90876f" letter-spacing="1">SONGS &amp; SETLISTS  <tspan fill="#f3b34c" opacity=".5">v3.2.2</tspan></text>
  <rect width="900" height="36" y="57" fill="#15130f"/>
  <rect width="900" height="1" y="93" fill="#352e23"/>
  <circle cx="18" cy="75" r="5" fill="#5fb56b"/>
  <text x="30" y="79" font-size="12" fill="#90876f" font-family="monospace">Saved at 13:00</text>
  <!-- sidebar narrow -->
  <rect width="180" height="467" y="93" fill="#1c1914"/>
  <rect width="1" height="467" x="180" y="93" fill="#352e23"/>
  <text x="45" y="120" font-size="13" font-weight="600" fill="#f3b34c" text-anchor="middle" letter-spacing="1">SONGS</text>
  <rect x="0" y="136" width="90" height="2" fill="#f3b34c"/>
  <text x="135" y="120" font-size="13" font-weight="600" fill="#90876f" text-anchor="middle" letter-spacing="1">SETS</text>
  <rect width="180" height="1" y="137" fill="#352e23"/>
  <rect x="8" y="147" width="136" height="28" rx="9" fill="#15130f" stroke="#352e23" stroke-width="1"/>
  <text x="18" y="165" font-size="11" fill="#90876f">Search…</text>
  <rect x="150" y="147" width="26" height="28" rx="7" fill="#f3b34c"/>
  <text x="163" y="166" font-size="16" fill="#1a1408" text-anchor="middle" font-weight="700">+</text>
  <text x="14" y="205" font-size="12" font-weight="600" fill="#ece4d3">Born This Way</text>
  <text x="14" y="217" font-size="10" fill="#90876f">Lady Gaga</text>
  <rect x="8" y="218" width="164" height="26" rx="8" fill="#252019" stroke="#c9923a" stroke-width="1"/>
  <rect x="8" y="218" width="3" height="26" rx="2" fill="#f3b34c"/>
  <text x="14" y="235" font-size="12" font-weight="600" fill="#ece4d3">Imsomnia</text>
  <text x="14" y="264" font-size="12" font-weight="600" fill="#ece4d3">Lola Montez</text>
  <text x="14" y="276" font-size="10" fill="#90876f">Volbeat</text>
  <text x="14" y="294" font-size="12" font-weight="600" fill="#ece4d3">Proud Mary</text>
  <text x="14" y="306" font-size="10" fill="#90876f">Ike &amp; Tina Turner</text>
  <!-- toolbar -->
  <rect x="181" y="93" width="719" height="44" fill="#1c1914"/>
  <rect x="181" y="137" width="719" height="1" fill="#352e23"/>
  <rect x="192" y="104" width="60" height="24" rx="7" fill="#15130f" stroke="#352e23" stroke-width="1"/>
  <text x="222" y="120" font-size="11" fill="#90876f" text-anchor="middle">Perform</text>
  <rect x="256" y="104" width="36" height="24" rx="0" fill="#252019"/>
  <text x="274" y="120" font-size="11" fill="#f3b34c" text-anchor="middle">Edit</text>
  <rect x="305" y="104" width="90" height="24" rx="7" fill="#15130f" stroke="#352e23" stroke-width="1"/>
  <text x="315" y="120" font-size="9" fill="#90876f">KEY</text>
  <text x="350" y="120" font-size="12" fill="#f3b34c" text-anchor="middle">0</text>
  <rect x="405" y="104" width="80" height="24" rx="7" fill="#15130f" stroke="#352e23" stroke-width="1"/>
  <text x="415" y="120" font-size="9" fill="#90876f">SIZE</text>
  <text x="445" y="120" font-size="12" fill="#f3b34c" text-anchor="middle">18</text>
  <!-- ed-top -->
  <rect x="181" y="138" width="719" height="86" fill="#15130f"/>
  <rect x="181" y="224" width="719" height="1" fill="#352e23"/>
  <rect x="196" y="150" width="340" height="30" rx="9" fill="#1c1914" stroke="#352e23" stroke-width="1"/>
  <text x="204" y="158" font-size="9" fill="#90876f" letter-spacing=".5">SONG TITLE</text>
  <text x="204" y="174" font-size="14" fill="#ece4d3">Imsomnia</text>
  <rect x="546" y="150" width="340" height="30" rx="9" fill="#1c1914" stroke="#352e23" stroke-width="1"/>
  <text x="554" y="158" font-size="9" fill="#90876f" letter-spacing=".5">ARTIST</text>
  <text x="554" y="174" font-size="14" fill="#90876f">e.g. Toto</text>
  <rect x="196" y="188" width="150" height="28" rx="9" fill="#1c1914" stroke="#352e23" stroke-width="1"/>
  <text x="204" y="196" font-size="9" fill="#90876f">KEY</text><text x="204" y="210" font-size="13" fill="#ece4d3">A</text>
  <rect x="354" y="188" width="150" height="28" rx="9" fill="#1c1914" stroke="#352e23" stroke-width="1"/>
  <text x="362" y="196" font-size="9" fill="#90876f">CAPO</text><text x="362" y="210" font-size="13" fill="#ece4d3">2</text>
  <rect x="512" y="188" width="150" height="28" rx="9" fill="#1c1914" stroke="#352e23" stroke-width="1"/>
  <text x="520" y="196" font-size="9" fill="#90876f">TEMPO</text><text x="520" y="210" font-size="13" fill="#ece4d3">100</text>
  <rect x="670" y="188" width="196" height="28" rx="9" fill="#252019" stroke="#c9923a" stroke-width="1"/>
  <text x="768" y="209" font-size="12" fill="#f3b34c" text-anchor="middle">🔎 Find chords</text>
  <!-- ed-mid -->
  <rect x="181" y="225" width="719" height="255" fill="#15130f"/>
  <!-- textarea -->
  <rect x="196" y="232" width="385" height="240" rx="11" fill="#1c1914" stroke="#352e23" stroke-width="1"/>
  <text x="204" y="250" font-size="10" fill="#90876f">CHORDS &amp; FORMATTING</text>
  <rect x="196" y="257" width="385" height="1" fill="#352e23"/>
  <!-- fmtbar -->
  <text x="202" y="272" font-size="11" fill="#90876f">H1</text>
  <text x="222" y="272" font-size="11" fill="#90876f">H2</text>
  <text x="242" y="272" font-size="11" fill="#90876f">H3</text>
  <text x="262" y="272" font-size="11" fill="#90876f">Body</text>
  <rect x="293" y="260" width="1" height="16" fill="#352e23"/>
  <text x="300" y="272" font-size="11" font-weight="700" fill="#90876f">B</text>
  <text x="315" y="272" font-size="11" font-style="italic" fill="#90876f">I</text>
  <text x="328" y="272" font-size="11" fill="#90876f">U</text>
  <text x="341" y="272" font-size="11" fill="#90876f">S</text>
  <rect x="356" y="260" width="1" height="16" fill="#352e23"/>
  <circle cx="365" cy="268" r="5" fill="#e2574c"/>
  <circle cx="378" cy="268" r="5" fill="#e8913a"/>
  <circle cx="391" cy="268" r="5" fill="#f3b34c"/>
  <circle cx="404" cy="268" r="5" fill="#5fb56b"/>
  <circle cx="417" cy="268" r="5" fill="#5fb0c4"/>
  <circle cx="430" cy="268" r="5" fill="#5b9bd5"/>
  <circle cx="443" cy="268" r="5" fill="#b07fe0"/>
  <circle cx="456" cy="268" r="5" fill="#e072a8"/>
  <rect x="196" y="278" width="385" height="1" fill="#352e23"/>
  <!-- chord content -->
  <text x="206" y="297" font-size="12" fill="#ece4d3" font-family="monospace">[Intro]</text>
  <text x="206" y="313" font-size="12" fill="#90876f" font-family="monospace">{orange:_Atmos/Pad Sound_}</text>
  <text x="206" y="329" font-size="12" fill="#ece4d3" font-family="monospace">| B/D# | B/D# | Bm/D | Bm/D |</text>
  <text x="206" y="345" font-size="12" fill="#ece4d3" font-family="monospace">Main Riff</text>
  <text x="206" y="361" font-size="12" fill="#ece4d3" font-family="monospace">{amber:Bmsus4 - Bmsus2} variaties</text>
  <text x="206" y="377" font-size="12" fill="#ece4d3" font-family="monospace">2x omlaag / 2x omhoog</text>
  <!-- resizer -->
  <rect x="582" y="225" width="12" height="255" fill="transparent"/>
  <rect x="587" y="245" width="2" height="215" rx="1" fill="#352e23"/>
  <!-- preview pane -->
  <rect x="596" y="225" width="290" height="255" fill="#15130f"/>
  <text x="602" y="242" font-size="10" fill="#90876f">PREVIEW <tspan fill="#f3b34c">18px</tspan> · A4</text>
  <rect x="830" y="230" width="18" height="18" rx="5" fill="#252019" stroke="#352e23" stroke-width="1"/>
  <text x="839" y="243" font-size="12" fill="#ece4d3" text-anchor="middle">−</text>
  <text x="854" y="243" font-size="10" fill="#f3b34c" font-family="monospace">45%</text>
  <rect x="870" y="230" width="18" height="18" rx="5" fill="#252019" stroke="#352e23" stroke-width="1"/>
  <text x="879" y="243" font-size="12" fill="#ece4d3" text-anchor="middle">+</text>
  <!-- page preview card -->
  <rect x="604" y="248" width="276" height="225" rx="2" fill="#1c1914" stroke="#352e23" stroke-width=".5"/>
  <text x="618" y="274" font-size="17" font-weight="700" fill="#ece4d3" font-family="Georgia,serif">Imsomnia</text>
  <text x="618" y="290" font-size="12" fill="#74b9c6" font-style="italic" font-family="monospace">Atmos/Pad Sound</text>
  <text x="618" y="307" font-size="12" fill="#ece4d3" font-family="monospace">| <tspan fill="#f3b34c" font-weight="700">B/D#</tspan> | <tspan fill="#f3b34c" font-weight="700">Bm/D</tspan> |</text>
  <text x="618" y="323" font-size="12" fill="#ece4d3" font-family="monospace">Main Riff</text>
  <text x="618" y="339" font-size="12" fill="#ece4d3" font-family="monospace"><tspan fill="#f3b34c" font-weight="700">Bmsus4</tspan> - <tspan fill="#f3b34c" font-weight="700">Bmsus2</tspan></text>
  <!-- footer -->
  <rect x="181" y="480" width="719" height="80" fill="#1c1914"/>
  <rect x="181" y="480" width="719" height="1" fill="#352e23"/>
  <rect x="196" y="492" width="120" height="26" rx="7" fill="#252019" stroke="#352e23" stroke-width="1"/>
  <text x="256" y="509" font-size="11" fill="#90876f" text-anchor="middle">⚙ Print settings ▲</text>
  <rect x="700" y="492" width="88" height="26" rx="8" fill="#252019" stroke="#e2574c" stroke-width="1"/>
  <text x="744" y="509" font-size="11" fill="#db6240" text-anchor="middle">Delete song</text>
  <rect x="796" y="492" width="88" height="26" rx="8" fill="#f3b34c"/>
  <text x="840" y="509" font-size="12" fill="#1a1408" text-anchor="middle" font-weight="700">Save</text>
</svg>
